<svg width="512" height="512" viewBox="0 0 512 512" fill="none" xmlns="http://www.w3.org/2000/svg">
  <rect width="512" height="512" rx="56" fill="url(#bg)"/>
  <rect x="56" y="84" width="400" height="344" rx="40" fill="#F7FBFF"/>
  <rect x="56" y="302" width="400" height="126" rx="0" fill="#DAE4EE"/>
  <rect x="108" y="124" width="148" height="110" rx="22" fill="#DDEAF8"/>
  <rect x="130" y="146" width="104" height="66" rx="16" fill="#FFFFFF"/>
  <rect x="170" y="108" width="24" height="36" rx="12" fill="#A1B8CE"/>
  <rect x="282" y="130" width="108" height="140" rx="26" fill="#FFFFFF"/>
  <rect x="302" y="154" width="68" height="82" rx="20" fill="#DDEAF8"/>
  <rect x="98" y="272" width="314" height="24" rx="12" fill="#95B4C8"/>
  <path d="M128 288H382V320C382 354.242 354.242 382 320 382H190C155.758 382 128 354.242 128 320V288Z" fill="#FFFFFF"/>
  <path d="M150 288H360V314C360 337.196 341.196 356 318 356H192C168.804 356 150 337.196 150 314V288Z" fill="#D8E7F4"/>
  <circle cx="324" cy="182" r="12" fill="#FFFFFF"/>
  <defs>
    <linearGradient id="bg" x1="68" y1="62" x2="446" y2="458" gradientUnits="userSpaceOnUse">
      <stop stop-color="#E8F4FF"/>
      <stop offset="1" stop-color="#BFD6EA"/>
    </linearGradient>
  </defs>
</svg>
