<svg width="512" height="512" viewBox="0 0 512 512" fill="none" xmlns="http://www.w3.org/2000/svg">
  <rect width="512" height="512" rx="56" fill="url(#bg)"/>
  <rect x="56" y="84" width="400" height="344" rx="40" fill="#FAF6FF"/>
  <rect x="56" y="300" width="400" height="128" rx="0" fill="#E8DFF0"/>
  <circle cx="376" cy="136" r="32" fill="#F2E0A2"/>
  <rect x="112" y="126" width="120" height="16" rx="8" fill="#E2C7D7"/>
  <rect x="112" y="154" width="96" height="16" rx="8" fill="#E2C7D7"/>
  <rect x="112" y="188" width="288" height="126" rx="30" fill="#C76B96"/>
  <rect x="92" y="204" width="28" height="174" rx="14" fill="#8B5976"/>
  <rect x="392" y="204" width="28" height="174" rx="14" fill="#8B5976"/>
  <rect x="132" y="218" width="96" height="68" rx="18" fill="#F4E6EF"/>
  <rect x="238" y="218" width="136" height="68" rx="18" fill="#EAC7D9"/>
  <rect x="112" y="314" width="288" height="28" rx="14" fill="#B45985"/>
  <rect x="126" y="342" width="16" height="62" rx="8" fill="#8B5976"/>
  <rect x="370" y="342" width="16" height="62" rx="8" fill="#8B5976"/>
  <defs>
    <linearGradient id="bg" x1="72" y1="64" x2="438" y2="454" gradientUnits="userSpaceOnUse">
      <stop stop-color="#F6E9F2"/>
      <stop offset="1" stop-color="#D6DEFF"/>
    </linearGradient>
  </defs>
</svg>
