<svg width="512" height="512" viewBox="0 0 512 512" fill="none" xmlns="http://www.w3.org/2000/svg">
  <rect width="512" height="512" rx="56" fill="url(#bg)"/>
  <rect x="56" y="84" width="400" height="344" rx="40" fill="#FFF8EF"/>
  <rect x="56" y="298" width="400" height="130" rx="0" fill="#E6D7C7"/>
  <rect x="92" y="204" width="328" height="146" rx="24" fill="#F3B27A"/>
  <rect x="118" y="170" width="116" height="64" rx="18" fill="#FFF4E6"/>
  <rect x="278" y="170" width="116" height="64" rx="18" fill="#FFF4E6"/>
  <rect x="214" y="120" width="84" height="18" rx="9" fill="#D97B4D"/>
  <rect x="228" y="136" width="56" height="50" rx="18" fill="#FFF4E6"/>
  <rect x="210" y="244" width="92" height="40" rx="20" fill="#FFF4E6"/>
  <circle cx="196" cy="276" r="10" fill="#D97B4D"/>
  <circle cx="316" cy="276" r="10" fill="#D97B4D"/>
  <rect x="86" y="354" width="340" height="12" rx="6" fill="#C88C63"/>
  <rect x="116" y="354" width="14" height="54" rx="7" fill="#9A694B"/>
  <rect x="382" y="354" width="14" height="54" rx="7" fill="#9A694B"/>
  <defs>
    <linearGradient id="bg" x1="64" y1="64" x2="448" y2="448" gradientUnits="userSpaceOnUse">
      <stop stop-color="#FFF0DB"/>
      <stop offset="1" stop-color="#E6B28A"/>
    </linearGradient>
  </defs>
</svg>
