<svg width="512" height="512" viewBox="0 0 512 512" fill="none" xmlns="http://www.w3.org/2000/svg">
  <rect width="512" height="512" rx="56" fill="url(#bg)"/>
  <rect x="56" y="84" width="400" height="344" rx="40" fill="#F8F6FF"/>
  <rect x="56" y="300" width="400" height="128" rx="0" fill="#E6DDF4"/>
  <circle cx="376" cy="136" r="34" fill="#F3DD8F"/>
  <rect x="204" y="114" width="104" height="18" rx="9" fill="#D0C7EE"/>
  <rect x="246" y="128" width="20" height="82" rx="10" fill="#D0C7EE"/>
  <rect x="104" y="214" width="304" height="128" rx="34" fill="#C97495"/>
  <rect x="86" y="234" width="54" height="98" rx="20" fill="#A96381"/>
  <rect x="372" y="234" width="54" height="98" rx="20" fill="#A96381"/>
  <rect x="146" y="178" width="220" height="100" rx="30" fill="#E6A8C0"/>
  <rect x="168" y="204" width="176" height="42" rx="18" fill="#FBE6EF"/>
  <rect x="126" y="332" width="16" height="64" rx="8" fill="#8D5878"/>
  <rect x="370" y="332" width="16" height="64" rx="8" fill="#8D5878"/>
  <defs>
    <linearGradient id="bg" x1="72" y1="52" x2="440" y2="460" gradientUnits="userSpaceOnUse">
      <stop stop-color="#F4EBDC"/>
      <stop offset="1" stop-color="#C7D6FF"/>
    </linearGradient>
  </defs>
</svg>
