<svg width="512" height="512" viewBox="0 0 512 512" fill="none" xmlns="http://www.w3.org/2000/svg">
  <rect width="512" height="512" rx="56" fill="url(#bg)"/>
  <rect x="56" y="84" width="400" height="344" rx="40" fill="#F5FBFC"/>
  <rect x="56" y="304" width="400" height="124" rx="0" fill="#DCE8EA"/>
  <rect x="92" y="122" width="156" height="132" rx="20" fill="#294C59"/>
  <rect x="118" y="150" width="104" height="16" rx="8" fill="#93D2B8"/>
  <rect x="118" y="178" width="88" height="16" rx="8" fill="#F1D58D"/>
  <rect x="118" y="206" width="72" height="16" rx="8" fill="#8DBDEA"/>
  <rect x="274" y="128" width="110" height="100" rx="22" fill="#DDE6F5"/>
  <rect x="296" y="150" width="66" height="56" rx="12" fill="#FFFFFF"/>
  <rect x="108" y="274" width="296" height="24" rx="12" fill="#7F5A45"/>
  <rect x="136" y="298" width="18" height="90" rx="9" fill="#5F4332"/>
  <rect x="358" y="298" width="18" height="90" rx="9" fill="#5F4332"/>
  <rect x="186" y="238" width="96" height="42" rx="20" fill="#F4E9D0"/>
  <rect x="300" y="242" width="64" height="34" rx="14" fill="#6CAAD0"/>
  <defs>
    <linearGradient id="bg" x1="68" y1="60" x2="446" y2="460" gradientUnits="userSpaceOnUse">
      <stop stop-color="#DDF4ED"/>
      <stop offset="1" stop-color="#BFD8F5"/>
    </linearGradient>
  </defs>
</svg>
