<svg width="512" height="512" viewBox="0 0 512 512" fill="none" xmlns="http://www.w3.org/2000/svg">
  <rect width="512" height="512" rx="120" fill="#0B1112"/>
  <circle cx="256" cy="268" r="154" fill="url(#core)"/>
  <ellipse cx="256" cy="352" rx="112" ry="34" fill="#24C36B" fill-opacity="0.12"/>
  <path d="M256 96L358 156V290L256 358L154 290V156L256 96Z" fill="#10191A" fill-opacity="0.18" stroke="url(#stroke)" stroke-width="10" stroke-linejoin="round"/>
  <path d="M256 96L358 156L256 216L154 156L256 96Z" fill="url(#top-face)"/>
  <path d="M154 156L256 216V358L154 290V156Z" fill="url(#left-face)"/>
  <path d="M358 156L256 216V358L358 290V156Z" fill="url(#right-face)"/>
  <path d="M256 96V358" stroke="url(#stroke)" stroke-width="8" stroke-linecap="round"/>
  <path d="M154 156L256 216L358 156" stroke="url(#stroke)" stroke-width="8" stroke-linecap="round" stroke-linejoin="round"/>
  <path d="M154 290L256 358L358 290" stroke="url(#stroke)" stroke-width="8" stroke-linecap="round" stroke-linejoin="round"/>
  <defs>
    <linearGradient id="stroke" x1="154" y1="102" x2="372" y2="378" gradientUnits="userSpaceOnUse">
      <stop stop-color="#F3F8F5"/>
      <stop offset="1" stop-color="#DDE9E2" stop-opacity="0.8"/>
    </linearGradient>
    <linearGradient id="top-face" x1="170" y1="108" x2="342" y2="210" gradientUnits="userSpaceOnUse">
      <stop stop-color="#FAFCFB"/>
      <stop offset="1" stop-color="#EAF1EC"/>
    </linearGradient>
    <linearGradient id="left-face" x1="154" y1="160" x2="262" y2="352" gradientUnits="userSpaceOnUse">
      <stop stop-color="#586162"/>
      <stop offset="1" stop-color="#3D4547"/>
    </linearGradient>
    <linearGradient id="right-face" x1="256" y1="156" x2="358" y2="318" gradientUnits="userSpaceOnUse">
      <stop stop-color="#3BD47D"/>
      <stop offset="1" stop-color="#187A45"/>
    </linearGradient>
    <radialGradient id="core" cx="0" cy="0" r="1" gradientUnits="userSpaceOnUse" gradientTransform="translate(256 262) rotate(90) scale(174)">
      <stop stop-color="#F3F8F5" stop-opacity="0.12"/>
      <stop offset="1" stop-color="#24C36B" stop-opacity="0"/>
    </radialGradient>
  </defs>
</svg>
