<svg width="256" height="256" viewBox="0 0 160 160" fill="none" xmlns="http://www.w3.org/2000/svg">
  <rect width="160" height="160" rx="36" fill="#0B1112"/>
  <circle cx="80" cy="84" r="48" fill="url(#core)"/>
  <ellipse cx="80" cy="110" rx="35" ry="11" fill="#24C36B" fill-opacity="0.1"/>
  <path d="M80 30L112 49V91L80 112L48 91V49L80 30Z" fill="#10191A" fill-opacity="0.18" stroke="url(#stroke)" stroke-width="3" stroke-linejoin="round"/>
  <path d="M80 30L112 49L80 68L48 49L80 30Z" fill="url(#top-face)"/>
  <path d="M48 49L80 68V112L48 91V49Z" fill="url(#left-face)"/>
  <path d="M112 49L80 68V112L112 91V49Z" fill="url(#right-face)"/>
  <path d="M80 30L80 112" stroke="url(#stroke)" stroke-width="2.5" stroke-linecap="round"/>
  <path d="M48 49L80 68L112 49" stroke="url(#stroke)" stroke-width="2.5" stroke-linecap="round" stroke-linejoin="round"/>
  <path d="M48 91L80 112L112 91" stroke="url(#stroke)" stroke-width="2.5" stroke-linecap="round" stroke-linejoin="round"/>
  <defs>
    <linearGradient id="stroke" x1="48" y1="32" x2="118" y2="118" gradientUnits="userSpaceOnUse">
      <stop stop-color="#F3F8F5"/>
      <stop offset="1" stop-color="#DDE9E2" stop-opacity="0.8"/>
    </linearGradient>
    <linearGradient id="top-face" x1="53" y1="34" x2="107" y2="66" gradientUnits="userSpaceOnUse">
      <stop stop-color="#FAFCFB"/>
      <stop offset="1" stop-color="#EAF1EC"/>
    </linearGradient>
    <linearGradient id="left-face" x1="48" y1="50" x2="82" y2="110" gradientUnits="userSpaceOnUse">
      <stop stop-color="#586162"/>
      <stop offset="1" stop-color="#3D4547"/>
    </linearGradient>
    <linearGradient id="right-face" x1="80" y1="48" x2="112" y2="98" gradientUnits="userSpaceOnUse">
      <stop stop-color="#3BD47D"/>
      <stop offset="1" stop-color="#187A45"/>
    </linearGradient>
    <radialGradient id="core" cx="0" cy="0" r="1" gradientUnits="userSpaceOnUse" gradientTransform="translate(80 82) rotate(90) scale(54)">
      <stop stop-color="#F3F8F5" stop-opacity="0.12"/>
      <stop offset="1" stop-color="#24C36B" stop-opacity="0"/>
    </radialGradient>
  </defs>
</svg>
